<svg id="visual" viewBox="0 0 2000 600" width="2000" height="600" xmlns="http://www.w3.org/2000/svg" xmlns:xlink="http://www.w3.org/1999/xlink" version="1.1"><rect x="0" y="0" width="2000" height="600" fill="#15385D"></rect><path d="M0 447L15.8 451.8C31.7 456.7 63.3 466.3 95 473.5C126.7 480.7 158.3 485.3 190.2 485.7C222 486 254 482 285.8 483.7C317.7 485.3 349.3 492.7 381 488.2C412.7 483.7 444.3 467.3 476 466.7C507.7 466 539.3 481 571.2 485.2C603 489.3 635 482.7 666.8 480.5C698.7 478.3 730.3 480.7 762 486.3C793.7 492 825.3 501 857 495.5C888.7 490 920.3 470 952.2 466C984 462 1016 474 1047.8 475.5C1079.7 477 1111.3 468 1143 468C1174.7 468 1206.3 477 1238 486C1269.7 495 1301.3 504 1333.2 500.2C1365 496.3 1397 479.7 1428.8 470.3C1460.7 461 1492.3 459 1524 466.2C1555.7 473.3 1587.3 489.7 1619 492.3C1650.7 495 1682.3 484 1714.2 476.7C1746 469.3 1778 465.7 1809.8 468.3C1841.7 471 1873.3 480 1905 488C1936.7 496 1968.3 503 1984.2 506.5L2000 510L2000 601L1984.2 601C1968.3 601 1936.7 601 1905 601C1873.3 601 1841.7 601 1809.8 601C1778 601 1746 601 1714.2 601C1682.3 601 1650.7 601 1619 601C1587.3 601 1555.7 601 1524 601C1492.3 601 1460.7 601 1428.8 601C1397 601 1365 601 1333.2 601C1301.3 601 1269.7 601 1238 601C1206.3 601 1174.7 601 1143 601C1111.3 601 1079.7 601 1047.8 601C1016 601 984 601 952.2 601C920.3 601 888.7 601 857 601C825.3 601 793.7 601 762 601C730.3 601 698.7 601 666.8 601C635 601 603 601 571.2 601C539.3 601 507.7 601 476 601C444.3 601 412.7 601 381 601C349.3 601 317.7 601 285.8 601C254 601 222 601 190.2 601C158.3 601 126.7 601 95 601C63.3 601 31.7 601 15.8 601L0 601Z" fill="#FFFFFF" stroke-linecap="round" stroke-linejoin="miter"></path></svg>