<svg id="visual" viewBox="0 0 900 600" width="900" height="600" xmlns="http://www.w3.org/2000/svg" xmlns:xlink="http://www.w3.org/1999/xlink" version="1.1"><rect x="0" y="0" width="900" height="600" fill="#15385D"></rect><path d="M0 445L16.7 445.5C33.3 446 66.7 447 100 455.7C133.3 464.3 166.7 480.7 200 482.7C233.3 484.7 266.7 472.3 300 472.5C333.3 472.7 366.7 485.3 400 487C433.3 488.7 466.7 479.3 500 475.8C533.3 472.3 566.7 474.7 600 481C633.3 487.3 666.7 497.7 700 498.2C733.3 498.7 766.7 489.3 800 478.5C833.3 467.7 866.7 455.3 883.3 449.2L900 443L900 601L883.3 601C866.7 601 833.3 601 800 601C766.7 601 733.3 601 700 601C666.7 601 633.3 601 600 601C566.7 601 533.3 601 500 601C466.7 601 433.3 601 400 601C366.7 601 333.3 601 300 601C266.7 601 233.3 601 200 601C166.7 601 133.3 601 100 601C66.7 601 33.3 601 16.7 601L0 601Z" fill="#FFFFFF" stroke-linecap="round" stroke-linejoin="miter"></path></svg>